<svg width="1280" height="520" viewBox="0 0 1280 520" fill="none" xmlns="http://www.w3.org/2000/svg" role="img" aria-labelledby="title desc">
  <title id="title">Sowads WP Audit</title>
  <desc id="desc">Banner for a Chrome extension that detects WordPress, CMS signals and sitemap content.</desc>
  <defs>
    <linearGradient id="bg" x1="0" y1="0" x2="1280" y2="520" gradientUnits="userSpaceOnUse">
      <stop stop-color="#102523"/>
      <stop offset="0.58" stop-color="#0B5F56"/>
      <stop offset="1" stop-color="#18A58F"/>
    </linearGradient>
    <linearGradient id="panel" x1="705" y1="92" x2="1100" y2="444" gradientUnits="userSpaceOnUse">
      <stop stop-color="#FFFFFF" stop-opacity="0.98"/>
      <stop offset="1" stop-color="#ECF7F4" stop-opacity="0.94"/>
    </linearGradient>
    <filter id="shadow" x="626" y="44" width="568" height="448" filterUnits="userSpaceOnUse" color-interpolation-filters="sRGB">
      <feFlood flood-opacity="0" result="BackgroundImageFix"/>
      <feColorMatrix in="SourceAlpha" type="matrix" values="0 0 0 0 0 0 0 0 0 0 0 0 0 0 0 0 0 0 127 0" result="hardAlpha"/>
      <feOffset dy="22"/>
      <feGaussianBlur stdDeviation="28"/>
      <feComposite in2="hardAlpha" operator="out"/>
      <feColorMatrix type="matrix" values="0 0 0 0 0.02 0 0 0 0 0.08 0 0 0 0 0.07 0 0 0 0.32 0"/>
      <feBlend mode="normal" in2="BackgroundImageFix" result="effect1_dropShadow_1_1"/>
      <feBlend mode="normal" in="SourceGraphic" in2="effect1_dropShadow_1_1" result="shape"/>
    </filter>
  </defs>

  <rect width="1280" height="520" rx="32" fill="url(#bg)"/>
  <path d="M0 406H1280V520H0V406Z" fill="#0A1B19" fill-opacity="0.28"/>
  <path d="M82 92H532" stroke="#FFFFFF" stroke-opacity="0.18" stroke-width="1"/>
  <path d="M82 428H559" stroke="#F2B84B" stroke-opacity="0.5" stroke-width="2"/>
  <path d="M1004 0L1280 0L1280 248L1004 0Z" fill="#F2B84B" fill-opacity="0.12"/>
  <path d="M0 0H298L0 240V0Z" fill="#FFFFFF" fill-opacity="0.06"/>

  <g transform="translate(82 106)">
    <rect x="0" y="0" width="68" height="68" rx="14" fill="#FFFFFF" fill-opacity="0.12" stroke="#FFFFFF" stroke-opacity="0.28"/>
    <text x="34" y="45" text-anchor="middle" font-family="Inter, Arial, sans-serif" font-size="34" font-weight="800" fill="#FFFFFF">S</text>
    <text x="0" y="116" font-family="Inter, Arial, sans-serif" font-size="24" font-weight="700" fill="#F2B84B">Sowads WP Audit</text>
    <text x="0" y="184" font-family="Inter, Arial, sans-serif" font-size="62" font-weight="850" fill="#FFFFFF">CMS detection</text>
    <text x="0" y="254" font-family="Inter, Arial, sans-serif" font-size="62" font-weight="850" fill="#FFFFFF">without guessing</text>
    <text x="0" y="306" font-family="Inter, Arial, sans-serif" font-size="24" font-weight="500" fill="#D8ECE7">WordPress signals, sitemap content and clear evidence</text>
  </g>

  <g filter="url(#shadow)">
    <rect x="682" y="78" width="456" height="352" rx="22" fill="url(#panel)"/>
    <rect x="706" y="104" width="408" height="54" rx="12" fill="#102523"/>
    <text x="730" y="139" font-family="Inter, Arial, sans-serif" font-size="18" font-weight="800" fill="#FFFFFF">CMS provavel</text>
    <rect x="1034" y="116" width="56" height="30" rx="8" fill="#18A58F"/>
    <text x="1062" y="137" text-anchor="middle" font-family="Inter, Arial, sans-serif" font-size="15" font-weight="850" fill="#FFFFFF">92</text>

    <text x="706" y="210" font-family="Inter, Arial, sans-serif" font-size="42" font-weight="850" fill="#102523">WordPress</text>
    <text x="706" y="244" font-family="Inter, Arial, sans-serif" font-size="18" font-weight="500" fill="#596B66">Confianca alta baseada em evidencias reais.</text>

    <rect x="706" y="278" width="190" height="46" rx="10" fill="#E8F7F3" stroke="#CBE7DF"/>
    <text x="724" y="307" font-family="Inter, Arial, sans-serif" font-size="16" font-weight="800" fill="#0B5F56">/wp-json/</text>

    <rect x="914" y="278" width="200" height="46" rx="10" fill="#FFF6DF" stroke="#F2D38A"/>
    <text x="932" y="307" font-family="Inter, Arial, sans-serif" font-size="16" font-weight="800" fill="#7A520C">post sitemap</text>

    <rect x="706" y="346" width="408" height="54" rx="12" fill="#FFFFFF" stroke="#DCE7E3"/>
    <rect x="724" y="363" width="72" height="20" rx="5" fill="#18A58F"/>
    <rect x="812" y="363" width="132" height="20" rx="5" fill="#DCE7E3"/>
    <rect x="960" y="363" width="104" height="20" rx="5" fill="#DCE7E3"/>
  </g>
</svg>
