<svg width="1280" height="520" viewBox="0 0 1280 520" fill="none" xmlns="http://www.w3.org/2000/svg" role="img" aria-labelledby="title desc">
  <title id="title">Sowads WP Audit</title>
  <desc id="desc">Banner em português para uma extensão Chrome que detecta WordPress, CMS e conteúdo via sitemap.</desc>
  <defs>
    <linearGradient id="bg" x1="0" y1="0" x2="1280" y2="520" gradientUnits="userSpaceOnUse">
      <stop stop-color="#F6C400"/>
      <stop offset="0.58" stop-color="#FFD84A"/>
      <stop offset="1" stop-color="#FFB800"/>
    </linearGradient>
    <linearGradient id="panel" x1="705" y1="92" x2="1100" y2="444" gradientUnits="userSpaceOnUse">
      <stop stop-color="#FFFFFF" stop-opacity="0.98"/>
      <stop offset="1" stop-color="#FFF6CC" stop-opacity="0.98"/>
    </linearGradient>
    <filter id="shadow" x="626" y="44" width="568" height="448" filterUnits="userSpaceOnUse" color-interpolation-filters="sRGB">
      <feFlood flood-opacity="0" result="BackgroundImageFix"/>
      <feColorMatrix in="SourceAlpha" type="matrix" values="0 0 0 0 0 0 0 0 0 0 0 0 0 0 0 0 0 0 127 0" result="hardAlpha"/>
      <feOffset dy="22"/>
      <feGaussianBlur stdDeviation="28"/>
      <feComposite in2="hardAlpha" operator="out"/>
      <feColorMatrix type="matrix" values="0 0 0 0 0.10 0 0 0 0 0.08 0 0 0 0 0.01 0 0 0 0.34 0"/>
      <feBlend mode="normal" in2="BackgroundImageFix" result="effect1_dropShadow_1_1"/>
      <feBlend mode="normal" in="SourceGraphic" in2="effect1_dropShadow_1_1" result="shape"/>
    </filter>
  </defs>

  <rect width="1280" height="520" rx="32" fill="url(#bg)"/>
  <path d="M0 392H1280V520H0V392Z" fill="#111111" fill-opacity="0.12"/>
  <path d="M82 92H532" stroke="#111111" stroke-opacity="0.22" stroke-width="2"/>
  <path d="M82 428H559" stroke="#111111" stroke-opacity="0.55" stroke-width="3"/>
  <path d="M1004 0L1280 0L1280 248L1004 0Z" fill="#111111" fill-opacity="0.08"/>
  <path d="M0 0H300L0 238V0Z" fill="#FFFFFF" fill-opacity="0.18"/>

  <g transform="translate(82 100)">
    <rect x="0" y="0" width="72" height="72" rx="16" fill="#111111"/>
    <text x="36" y="48" text-anchor="middle" font-family="Inter, Arial, sans-serif" font-size="36" font-weight="850" fill="#F6C400">S</text>
    <text x="0" y="122" font-family="Inter, Arial, sans-serif" font-size="24" font-weight="800" fill="#111111">Sowads WP Audit</text>
    <text x="0" y="190" font-family="Inter, Arial, sans-serif" font-size="62" font-weight="850" fill="#111111">Detecte CMS</text>
    <text x="0" y="260" font-family="Inter, Arial, sans-serif" font-size="62" font-weight="850" fill="#111111">sem chute</text>
    <text x="0" y="312" font-family="Inter, Arial, sans-serif" font-size="22" font-weight="650" fill="#3B2F00">WordPress, sitemap e evidências reais</text>
  </g>

  <g filter="url(#shadow)">
    <rect x="682" y="78" width="456" height="352" rx="22" fill="url(#panel)"/>
    <rect x="706" y="104" width="408" height="54" rx="12" fill="#111111"/>
    <text x="730" y="139" font-family="Inter, Arial, sans-serif" font-size="18" font-weight="800" fill="#F6C400">CMS provável</text>
    <rect x="1034" y="116" width="56" height="30" rx="8" fill="#F6C400"/>
    <text x="1062" y="137" text-anchor="middle" font-family="Inter, Arial, sans-serif" font-size="15" font-weight="850" fill="#111111">92</text>

    <text x="706" y="210" font-family="Inter, Arial, sans-serif" font-size="42" font-weight="850" fill="#111111">WordPress</text>
    <text x="706" y="244" font-family="Inter, Arial, sans-serif" font-size="18" font-weight="600" fill="#574600">Confiança alta baseada em evidências reais.</text>

    <rect x="706" y="278" width="190" height="46" rx="10" fill="#FFF1A8" stroke="#E1B500"/>
    <text x="724" y="307" font-family="Inter, Arial, sans-serif" font-size="16" font-weight="850" fill="#111111">/wp-json/</text>

    <rect x="914" y="278" width="200" height="46" rx="10" fill="#111111" stroke="#111111"/>
    <text x="932" y="307" font-family="Inter, Arial, sans-serif" font-size="16" font-weight="850" fill="#F6C400">sitemap de posts</text>

    <rect x="706" y="346" width="408" height="54" rx="12" fill="#FFFFFF" stroke="#E1B500"/>
    <rect x="724" y="363" width="72" height="20" rx="5" fill="#F6C400"/>
    <rect x="812" y="363" width="132" height="20" rx="5" fill="#1A1A1A" fill-opacity="0.18"/>
    <rect x="960" y="363" width="104" height="20" rx="5" fill="#1A1A1A" fill-opacity="0.18"/>
  </g>
</svg>
